<svg xmlns="http://www.w3.org/2000/svg" xmlns:xlink="http://www.w3.org/1999/xlink" version="1.1" x="0px" y="0px" viewBox="0 0 100 125" enable-background="new 0 0 100 100" xml:space="preserve"><g><path fill="#ffffff" d="M36.295,18.487c-16.806,0-30.433,13.626-30.433,30.433c0,6.918,2.314,13.292,6.202,18.405L5,81.081   l14.239-6.956c4.866,3.3,10.736,5.228,17.056,5.228c16.809,0,30.434-13.625,30.434-30.433   C66.729,32.113,53.104,18.487,36.295,18.487z M41.226,68.925h-8.95v-8.578h8.95V68.925z M45.796,48.679l-3.622,4.636   c-0.631,0.816-0.948,1.651-0.948,2.505v0.478h-8.95v-1.226c0-2.236,0.739-4.209,2.216-5.913l3.786-4.37   c0.971-1.137,1.458-2.131,1.458-2.982c0-2.168-1.065-3.251-3.198-3.251c-2.131,0-3.196,1.118-3.196,3.355h-8.738   c0-3.479,1.19-6.269,3.568-8.364c2.203-1.919,4.992-2.878,8.366-2.878c3.339,0,6.108,0.942,8.312,2.825   c2.416,2.06,3.624,4.848,3.624,8.364C48.474,44.132,47.581,46.406,45.796,48.679z"/><path fill="#ffffff" d="M90.656,73.054c2.384-3.137,3.816-7.037,3.816-11.28c0-10.317-8.368-18.68-18.68-18.68   c-2.166,0-4.235,0.387-6.17,1.063c0.223,1.558,0.343,3.146,0.343,4.763c0,9.113-3.644,17.386-9.546,23.455   c3.37,4.876,8.995,8.076,15.373,8.076c3.878,0,7.48-1.183,10.468-3.206L95,81.513L90.656,73.054z M78.966,72.715H74.16V57.566   h4.806V72.715z M78.966,55.341H74.16v-3.662h4.806V55.341z"/></g></svg>