<?xml version="1.0" encoding="UTF-8"?><!DOCTYPE svg PUBLIC "-//W3C//DTD SVG 1.1//EN" "http://www.w3.org/Graphics/SVG/1.1/DTD/svg11.dtd"><svg xmlns="http://www.w3.org/2000/svg" xmlns:xlink="http://www.w3.org/1999/xlink" version="1.1" width="24" height="24" viewBox="0 0 24 24"><path d="M4,2C2.9,2 2,2.9 2,4V20C2,21.1 2.9,22 4,22H12.41C12.41,25.87 12.13,23 16,23C19.87,23 23,19.87 23,16C23,12.13 21.87,9.3 18,9.3V8L12,2H4M4,4H11V9H16C12.13,9 9,12.13 9,16C9,19.87 6.39,20 10.26,20H4V4M16,11C18.76,11 21,13.24 21,16C21,18.76 18.76,21 16,21C13.24,21 11,18.76 11,16C11,13.24 13.24,11 16,11M15,12V17L18.61,19.16L19.36,17.94L16.5,16.25V12H15Z" /></svg>